<mxfile host="app.diagrams.net" modified="2021-10-21T17:17:25.687Z" agent="5.0 (Windows NT 10.0; Win64; x64) AppleWebKit/537.36 (KHTML, like Gecko) Chrome/94.0.4606.81 Safari/537.36" etag="FjSoFivjKWyxfv5BQgyY" version="15.5.6" type="github">
  <diagram id="vpTXcgFdKYzMens8IX9X" name="Page-1">
    <mxGraphModel dx="2031" dy="2258" grid="1" gridSize="10" guides="1" tooltips="1" connect="1" arrows="1" fold="1" page="1" pageScale="1" pageWidth="827" pageHeight="1169" math="0" shadow="0">
      <root>
        <mxCell id="0" />
        <mxCell id="1" parent="0" />
        <mxCell id="3udOMzWubH17WjhPCYXK-2" value="" style="rounded=0;whiteSpace=wrap;html=1;" parent="1" vertex="1">
          <mxGeometry x="110" y="-1060" width="670" height="1040" as="geometry" />
        </mxCell>
        <mxCell id="uc1siL4eBgvBpQvHCMmR-30" value="" style="rounded=0;whiteSpace=wrap;html=1;fillColor=none;strokeColor=#FF351F;" vertex="1" parent="1">
          <mxGeometry x="140" y="-630" width="610" height="590" as="geometry" />
        </mxCell>
        <mxCell id="uc1siL4eBgvBpQvHCMmR-7" value="" style="rounded=0;whiteSpace=wrap;html=1;fillColor=none;strokeColor=#1717FF;" vertex="1" parent="1">
          <mxGeometry x="140" y="-1015" width="610" height="370" as="geometry" />
        </mxCell>
        <mxCell id="3udOMzWubH17WjhPCYXK-3" value="Player" style="shape=umlActor;verticalLabelPosition=bottom;verticalAlign=top;html=1;outlineConnect=0;" parent="1" vertex="1">
          <mxGeometry x="30" y="-860" width="30" height="60" as="geometry" />
        </mxCell>
        <mxCell id="3udOMzWubH17WjhPCYXK-4" value="Admin" style="shape=umlActor;verticalLabelPosition=bottom;verticalAlign=top;html=1;outlineConnect=0;" parent="1" vertex="1">
          <mxGeometry x="30" y="-390" width="30" height="60" as="geometry" />
        </mxCell>
        <mxCell id="3udOMzWubH17WjhPCYXK-9" value="&lt;b&gt;TYPERACER&lt;/b&gt;" style="text;html=1;strokeColor=none;fillColor=none;align=center;verticalAlign=middle;whiteSpace=wrap;rounded=0;" parent="1" vertex="1">
          <mxGeometry x="110" y="-1060" width="100" height="30" as="geometry" />
        </mxCell>
        <mxCell id="3udOMzWubH17WjhPCYXK-10" value="Play a game" style="ellipse;whiteSpace=wrap;html=1;" parent="1" vertex="1">
          <mxGeometry x="261.5" y="-890" width="126" height="80" as="geometry" />
        </mxCell>
        <mxCell id="3udOMzWubH17WjhPCYXK-15" value="" style="endArrow=classic;html=1;rounded=0;entryX=0.021;entryY=0.585;entryDx=0;entryDy=0;entryPerimeter=0;exitX=1;exitY=0.3333333333333333;exitDx=0;exitDy=0;exitPerimeter=0;" parent="1" source="3udOMzWubH17WjhPCYXK-3" target="3udOMzWubH17WjhPCYXK-10" edge="1">
          <mxGeometry width="50" height="50" relative="1" as="geometry">
            <mxPoint x="70" y="-750" as="sourcePoint" />
            <mxPoint x="520" y="-710" as="targetPoint" />
          </mxGeometry>
        </mxCell>
        <mxCell id="3udOMzWubH17WjhPCYXK-17" value="See leaderboards" style="ellipse;whiteSpace=wrap;html=1;" parent="1" vertex="1">
          <mxGeometry x="259" y="-740" width="131" height="80" as="geometry" />
        </mxCell>
        <mxCell id="3udOMzWubH17WjhPCYXK-18" value="" style="endArrow=classic;html=1;rounded=0;exitX=1;exitY=1;exitDx=0;exitDy=0;exitPerimeter=0;" parent="1" source="3udOMzWubH17WjhPCYXK-3" target="3udOMzWubH17WjhPCYXK-17" edge="1">
          <mxGeometry width="50" height="50" relative="1" as="geometry">
            <mxPoint x="70" y="-730" as="sourcePoint" />
            <mxPoint x="520" y="-710" as="targetPoint" />
          </mxGeometry>
        </mxCell>
        <mxCell id="3udOMzWubH17WjhPCYXK-29" value="Restart &lt;br&gt;game servıce" style="ellipse;whiteSpace=wrap;html=1;" parent="1" vertex="1">
          <mxGeometry x="425" y="-270" width="120" height="80" as="geometry" />
        </mxCell>
        <mxCell id="3udOMzWubH17WjhPCYXK-34" value="{abstract}&lt;br&gt;Add entry to content database" style="ellipse;whiteSpace=wrap;html=1;" parent="1" vertex="1">
          <mxGeometry x="290" y="-450" width="110" height="70" as="geometry" />
        </mxCell>
        <mxCell id="3udOMzWubH17WjhPCYXK-36" value="Remove entry" style="ellipse;whiteSpace=wrap;html=1;" parent="1" vertex="1">
          <mxGeometry x="630" y="-560" width="110" height="70" as="geometry" />
        </mxCell>
        <mxCell id="3udOMzWubH17WjhPCYXK-37" value="Edit announcement&lt;br&gt;text" style="ellipse;whiteSpace=wrap;html=1;" parent="1" vertex="1">
          <mxGeometry x="540" y="-340" width="120" height="80" as="geometry" />
        </mxCell>
        <mxCell id="3udOMzWubH17WjhPCYXK-38" value="Shut down &lt;br&gt;game servıce" style="ellipse;whiteSpace=wrap;html=1;" parent="1" vertex="1">
          <mxGeometry x="626" y="-270" width="120" height="80" as="geometry" />
        </mxCell>
        <mxCell id="3udOMzWubH17WjhPCYXK-45" value="Adjust queue &lt;br&gt;duration" style="ellipse;whiteSpace=wrap;html=1;" parent="1" vertex="1">
          <mxGeometry x="390" y="-140" width="120" height="80" as="geometry" />
        </mxCell>
        <mxCell id="3udOMzWubH17WjhPCYXK-46" value="Adjust DNF&lt;br&gt;duration" style="ellipse;whiteSpace=wrap;html=1;" parent="1" vertex="1">
          <mxGeometry x="230" y="-130" width="120" height="80" as="geometry" />
        </mxCell>
        <mxCell id="3udOMzWubH17WjhPCYXK-49" value="" style="endArrow=classic;html=1;rounded=0;exitX=0.75;exitY=0.1;exitDx=0;exitDy=0;exitPerimeter=0;entryX=0;entryY=0.5;entryDx=0;entryDy=0;" parent="1" source="3udOMzWubH17WjhPCYXK-4" target="3udOMzWubH17WjhPCYXK-34" edge="1">
          <mxGeometry width="50" height="50" relative="1" as="geometry">
            <mxPoint x="70" y="-390" as="sourcePoint" />
            <mxPoint x="220" y="-440" as="targetPoint" />
          </mxGeometry>
        </mxCell>
        <mxCell id="3udOMzWubH17WjhPCYXK-50" value="" style="endArrow=classic;html=1;rounded=0;exitX=1;exitY=0.3333333333333333;exitDx=0;exitDy=0;exitPerimeter=0;entryX=0;entryY=0.5;entryDx=0;entryDy=0;" parent="1" source="3udOMzWubH17WjhPCYXK-4" target="3udOMzWubH17WjhPCYXK-37" edge="1">
          <mxGeometry width="50" height="50" relative="1" as="geometry">
            <mxPoint x="52.5" y="-384" as="sourcePoint" />
            <mxPoint x="334.0000000000002" y="-660" as="targetPoint" />
          </mxGeometry>
        </mxCell>
        <mxCell id="3udOMzWubH17WjhPCYXK-51" value="" style="endArrow=classic;html=1;rounded=0;entryX=0.037;entryY=0.346;entryDx=0;entryDy=0;entryPerimeter=0;" parent="1" target="3udOMzWubH17WjhPCYXK-38" edge="1">
          <mxGeometry width="50" height="50" relative="1" as="geometry">
            <mxPoint x="60" y="-370" as="sourcePoint" />
            <mxPoint x="334.0000000000002" y="-660" as="targetPoint" />
          </mxGeometry>
        </mxCell>
        <mxCell id="3udOMzWubH17WjhPCYXK-52" value="" style="endArrow=classic;html=1;rounded=0;exitX=1;exitY=1;exitDx=0;exitDy=0;exitPerimeter=0;entryX=0;entryY=0.5;entryDx=0;entryDy=0;" parent="1" source="3udOMzWubH17WjhPCYXK-4" target="3udOMzWubH17WjhPCYXK-45" edge="1">
          <mxGeometry width="50" height="50" relative="1" as="geometry">
            <mxPoint x="52.5" y="-384" as="sourcePoint" />
            <mxPoint x="334.0000000000002" y="-660" as="targetPoint" />
          </mxGeometry>
        </mxCell>
        <mxCell id="3udOMzWubH17WjhPCYXK-53" value="" style="endArrow=classic;html=1;rounded=0;" parent="1" source="3udOMzWubH17WjhPCYXK-4" target="3udOMzWubH17WjhPCYXK-29" edge="1">
          <mxGeometry width="50" height="50" relative="1" as="geometry">
            <mxPoint x="52.5" y="-384" as="sourcePoint" />
            <mxPoint x="334.0000000000002" y="-660" as="targetPoint" />
          </mxGeometry>
        </mxCell>
        <mxCell id="3udOMzWubH17WjhPCYXK-56" value="" style="endArrow=classic;html=1;rounded=0;dashed=1;entryX=-0.027;entryY=0.521;entryDx=0;entryDy=0;entryPerimeter=0;" parent="1" source="3udOMzWubH17WjhPCYXK-29" target="3udOMzWubH17WjhPCYXK-38" edge="1">
          <mxGeometry width="50" height="50" relative="1" as="geometry">
            <mxPoint x="394" y="-410" as="sourcePoint" />
            <mxPoint x="520" y="-530" as="targetPoint" />
          </mxGeometry>
        </mxCell>
        <mxCell id="3udOMzWubH17WjhPCYXK-57" value="&quot;include&quot;" style="text;html=1;strokeColor=none;fillColor=none;align=center;verticalAlign=middle;whiteSpace=wrap;rounded=0;" parent="1" vertex="1">
          <mxGeometry x="550" y="-230" width="60" height="30" as="geometry" />
        </mxCell>
        <mxCell id="3udOMzWubH17WjhPCYXK-59" value="" style="endArrow=classic;html=1;rounded=0;entryX=0;entryY=0.5;entryDx=0;entryDy=0;exitX=1;exitY=1;exitDx=0;exitDy=0;exitPerimeter=0;" parent="1" source="3udOMzWubH17WjhPCYXK-4" target="3udOMzWubH17WjhPCYXK-46" edge="1">
          <mxGeometry width="50" height="50" relative="1" as="geometry">
            <mxPoint x="40" y="-320" as="sourcePoint" />
            <mxPoint x="440" y="-400" as="targetPoint" />
          </mxGeometry>
        </mxCell>
        <mxCell id="3udOMzWubH17WjhPCYXK-60" value="Reset leaderboard" style="ellipse;whiteSpace=wrap;html=1;" parent="1" vertex="1">
          <mxGeometry x="550" y="-160" width="120" height="80" as="geometry" />
        </mxCell>
        <mxCell id="3udOMzWubH17WjhPCYXK-61" value="" style="endArrow=classic;html=1;rounded=0;" parent="1" source="3udOMzWubH17WjhPCYXK-4" target="3udOMzWubH17WjhPCYXK-60" edge="1">
          <mxGeometry width="50" height="50" relative="1" as="geometry">
            <mxPoint x="390" y="-340" as="sourcePoint" />
            <mxPoint x="440" y="-390" as="targetPoint" />
          </mxGeometry>
        </mxCell>
        <mxCell id="Q6Z16wTfzvYBHBcNCub--3" value="Import text using a text box" style="ellipse;whiteSpace=wrap;html=1;" parent="1" vertex="1">
          <mxGeometry x="455" y="-490" width="110" height="70" as="geometry" />
        </mxCell>
        <mxCell id="Q6Z16wTfzvYBHBcNCub--4" value="Import text from a &lt;br&gt;.txt file" style="ellipse;whiteSpace=wrap;html=1;" parent="1" vertex="1">
          <mxGeometry x="455" y="-410" width="110" height="70" as="geometry" />
        </mxCell>
        <mxCell id="Q6Z16wTfzvYBHBcNCub--5" value="" style="endArrow=block;html=1;rounded=0;exitX=0.027;exitY=0.614;exitDx=0;exitDy=0;exitPerimeter=0;endFill=0;entryX=1;entryY=0;entryDx=0;entryDy=0;" parent="1" source="Q6Z16wTfzvYBHBcNCub--3" target="3udOMzWubH17WjhPCYXK-34" edge="1">
          <mxGeometry width="50" height="50" relative="1" as="geometry">
            <mxPoint x="413.80999999999995" y="-557.5799999999999" as="sourcePoint" />
            <mxPoint x="329.9868007771263" y="-559.1610237653547" as="targetPoint" />
          </mxGeometry>
        </mxCell>
        <mxCell id="Q6Z16wTfzvYBHBcNCub--6" value="" style="endArrow=block;html=1;rounded=0;exitX=0;exitY=0.5;exitDx=0;exitDy=0;endFill=0;entryX=1;entryY=1;entryDx=0;entryDy=0;" parent="1" source="Q6Z16wTfzvYBHBcNCub--4" target="3udOMzWubH17WjhPCYXK-34" edge="1">
          <mxGeometry width="50" height="50" relative="1" as="geometry">
            <mxPoint x="413.80999999999995" y="-557.5799999999999" as="sourcePoint" />
            <mxPoint x="329.9868007771263" y="-559.1610237653547" as="targetPoint" />
          </mxGeometry>
        </mxCell>
        <mxCell id="Q6Z16wTfzvYBHBcNCub--7" value="Select a server &lt;br&gt;to play on" style="ellipse;whiteSpace=wrap;html=1;" parent="1" vertex="1">
          <mxGeometry x="504" y="-900" width="126" height="80" as="geometry" />
        </mxCell>
        <mxCell id="Q6Z16wTfzvYBHBcNCub--8" value="Set playerName" style="ellipse;whiteSpace=wrap;html=1;" parent="1" vertex="1">
          <mxGeometry x="504" y="-790" width="126" height="80" as="geometry" />
        </mxCell>
        <mxCell id="Q6Z16wTfzvYBHBcNCub--12" value="" style="endArrow=classic;html=1;rounded=0;dashed=1;entryX=0;entryY=0;entryDx=0;entryDy=0;" parent="1" source="3udOMzWubH17WjhPCYXK-10" target="Q6Z16wTfzvYBHBcNCub--8" edge="1">
          <mxGeometry width="50" height="50" relative="1" as="geometry">
            <mxPoint x="394" y="-410" as="sourcePoint" />
            <mxPoint x="520" y="-530" as="targetPoint" />
          </mxGeometry>
        </mxCell>
        <mxCell id="Q6Z16wTfzvYBHBcNCub--13" value="" style="endArrow=classic;html=1;rounded=0;dashed=1;exitX=1;exitY=0.5;exitDx=0;exitDy=0;entryX=0;entryY=0.5;entryDx=0;entryDy=0;" parent="1" source="3udOMzWubH17WjhPCYXK-10" target="Q6Z16wTfzvYBHBcNCub--7" edge="1">
          <mxGeometry width="50" height="50" relative="1" as="geometry">
            <mxPoint x="394" y="-410" as="sourcePoint" />
            <mxPoint x="520" y="-530" as="targetPoint" />
          </mxGeometry>
        </mxCell>
        <mxCell id="Q6Z16wTfzvYBHBcNCub--15" value="&quot;include&quot;" style="text;html=1;strokeColor=none;fillColor=none;align=center;verticalAlign=middle;whiteSpace=wrap;rounded=0;" parent="1" vertex="1">
          <mxGeometry x="400" y="-890" width="60" height="30" as="geometry" />
        </mxCell>
        <mxCell id="Q6Z16wTfzvYBHBcNCub--16" value="&quot;include&quot;" style="text;html=1;strokeColor=none;fillColor=none;align=center;verticalAlign=middle;whiteSpace=wrap;rounded=0;" parent="1" vertex="1">
          <mxGeometry x="414" y="-810" width="60" height="30" as="geometry" />
        </mxCell>
        <mxCell id="Q6Z16wTfzvYBHBcNCub--17" value="" style="endArrow=classic;html=1;rounded=0;entryX=0;entryY=0.5;entryDx=0;entryDy=0;" parent="1" source="3udOMzWubH17WjhPCYXK-3" target="Q6Z16wTfzvYBHBcNCub--8" edge="1">
          <mxGeometry width="50" height="50" relative="1" as="geometry">
            <mxPoint x="70" y="-750" as="sourcePoint" />
            <mxPoint x="520" y="-710" as="targetPoint" />
          </mxGeometry>
        </mxCell>
        <mxCell id="uc1siL4eBgvBpQvHCMmR-1" value="Chat with &lt;br&gt;other players" style="ellipse;whiteSpace=wrap;html=1;" vertex="1" parent="1">
          <mxGeometry x="500" y="-1000" width="126" height="80" as="geometry" />
        </mxCell>
        <mxCell id="uc1siL4eBgvBpQvHCMmR-3" value="" style="endArrow=classic;html=1;rounded=0;dashed=1;exitX=0.667;exitY=-0.025;exitDx=0;exitDy=0;entryX=0;entryY=0.5;entryDx=0;entryDy=0;exitPerimeter=0;" edge="1" parent="1" source="3udOMzWubH17WjhPCYXK-10" target="uc1siL4eBgvBpQvHCMmR-1">
          <mxGeometry width="50" height="50" relative="1" as="geometry">
            <mxPoint x="394" y="-410" as="sourcePoint" />
            <mxPoint x="520" y="-530" as="targetPoint" />
          </mxGeometry>
        </mxCell>
        <mxCell id="uc1siL4eBgvBpQvHCMmR-4" value="&quot;extend&quot;" style="text;html=1;strokeColor=none;fillColor=none;align=center;verticalAlign=middle;whiteSpace=wrap;rounded=0;" vertex="1" parent="1">
          <mxGeometry x="387.5" y="-960" width="60" height="30" as="geometry" />
        </mxCell>
        <mxCell id="uc1siL4eBgvBpQvHCMmR-8" value="&lt;b&gt;GAME&lt;br&gt;COMPONENT&lt;/b&gt;" style="text;html=1;strokeColor=none;fillColor=none;align=center;verticalAlign=middle;whiteSpace=wrap;rounded=0;fontColor=#0033FF;" vertex="1" parent="1">
          <mxGeometry x="150" y="-1010" width="100" height="30" as="geometry" />
        </mxCell>
        <mxCell id="uc1siL4eBgvBpQvHCMmR-10" value="&lt;b&gt;&lt;font color=&quot;#ff351f&quot;&gt;ADMIN PANEL COMPONENT&lt;/font&gt;&lt;/b&gt;" style="text;html=1;strokeColor=none;fillColor=none;align=center;verticalAlign=middle;whiteSpace=wrap;rounded=0;fontColor=#0033FF;" vertex="1" parent="1">
          <mxGeometry x="150" y="-620" width="100" height="30" as="geometry" />
        </mxCell>
        <mxCell id="uc1siL4eBgvBpQvHCMmR-11" value="Conduct search &lt;br&gt;in content&lt;br&gt;database" style="ellipse;whiteSpace=wrap;html=1;" vertex="1" parent="1">
          <mxGeometry x="427.5" y="-619" width="115" height="70" as="geometry" />
        </mxCell>
        <mxCell id="uc1siL4eBgvBpQvHCMmR-12" value="" style="endArrow=classic;html=1;rounded=0;entryX=0;entryY=0.5;entryDx=0;entryDy=0;exitX=0.75;exitY=0.1;exitDx=0;exitDy=0;exitPerimeter=0;" edge="1" parent="1" source="3udOMzWubH17WjhPCYXK-4" target="uc1siL4eBgvBpQvHCMmR-17">
          <mxGeometry width="50" height="50" relative="1" as="geometry">
            <mxPoint x="70" y="-390" as="sourcePoint" />
            <mxPoint x="520" y="-490" as="targetPoint" />
          </mxGeometry>
        </mxCell>
        <mxCell id="uc1siL4eBgvBpQvHCMmR-14" value="" style="endArrow=classic;html=1;rounded=0;dashed=1;entryX=0.063;entryY=0.237;entryDx=0;entryDy=0;entryPerimeter=0;exitX=1;exitY=0.5;exitDx=0;exitDy=0;" edge="1" parent="1" source="uc1siL4eBgvBpQvHCMmR-11" target="3udOMzWubH17WjhPCYXK-36">
          <mxGeometry width="50" height="50" relative="1" as="geometry">
            <mxPoint x="394" y="-410" as="sourcePoint" />
            <mxPoint x="520" y="-530" as="targetPoint" />
          </mxGeometry>
        </mxCell>
        <mxCell id="uc1siL4eBgvBpQvHCMmR-15" value="&quot;extend&quot;" style="text;html=1;strokeColor=none;fillColor=none;align=center;verticalAlign=middle;whiteSpace=wrap;rounded=0;" vertex="1" parent="1">
          <mxGeometry x="557.5" y="-610" width="60" height="30" as="geometry" />
        </mxCell>
        <mxCell id="uc1siL4eBgvBpQvHCMmR-17" value="View the content&amp;nbsp;&lt;br&gt;database" style="ellipse;whiteSpace=wrap;html=1;" vertex="1" parent="1">
          <mxGeometry x="250" y="-560" width="115" height="70" as="geometry" />
        </mxCell>
        <mxCell id="uc1siL4eBgvBpQvHCMmR-20" value="" style="endArrow=classic;html=1;rounded=0;dashed=1;entryX=0;entryY=0.5;entryDx=0;entryDy=0;" edge="1" parent="1" source="uc1siL4eBgvBpQvHCMmR-17" target="3udOMzWubH17WjhPCYXK-36">
          <mxGeometry width="50" height="50" relative="1" as="geometry">
            <mxPoint x="539.9999999999995" y="-505" as="sourcePoint" />
            <mxPoint x="520" y="-530" as="targetPoint" />
          </mxGeometry>
        </mxCell>
        <mxCell id="uc1siL4eBgvBpQvHCMmR-23" value="&quot;extend&quot;" style="text;html=1;strokeColor=none;fillColor=none;align=center;verticalAlign=middle;whiteSpace=wrap;rounded=0;" vertex="1" parent="1">
          <mxGeometry x="455" y="-520" width="60" height="30" as="geometry" />
        </mxCell>
        <mxCell id="uc1siL4eBgvBpQvHCMmR-25" value="" style="endArrow=classic;html=1;rounded=0;dashed=1;exitX=0.798;exitY=0.081;exitDx=0;exitDy=0;entryX=0;entryY=0.5;entryDx=0;entryDy=0;exitPerimeter=0;" edge="1" parent="1" source="uc1siL4eBgvBpQvHCMmR-17" target="uc1siL4eBgvBpQvHCMmR-11">
          <mxGeometry width="50" height="50" relative="1" as="geometry">
            <mxPoint x="549.9999999999995" y="-495" as="sourcePoint" />
            <mxPoint x="642.75" y="-524.3" as="targetPoint" />
          </mxGeometry>
        </mxCell>
        <mxCell id="uc1siL4eBgvBpQvHCMmR-26" value="&quot;extend&quot;" style="text;html=1;strokeColor=none;fillColor=none;align=center;verticalAlign=middle;whiteSpace=wrap;rounded=0;" vertex="1" parent="1">
          <mxGeometry x="340" y="-610" width="60" height="30" as="geometry" />
        </mxCell>
        <mxCell id="uc1siL4eBgvBpQvHCMmR-27" value="" style="endArrow=classic;html=1;rounded=0;dashed=1;exitX=0.594;exitY=0.998;exitDx=0;exitDy=0;exitPerimeter=0;" edge="1" parent="1" source="uc1siL4eBgvBpQvHCMmR-17" target="3udOMzWubH17WjhPCYXK-34">
          <mxGeometry width="50" height="50" relative="1" as="geometry">
            <mxPoint x="549.9999999999995" y="-495" as="sourcePoint" />
            <mxPoint x="642.75" y="-524.3" as="targetPoint" />
          </mxGeometry>
        </mxCell>
        <mxCell id="uc1siL4eBgvBpQvHCMmR-28" value="&quot;extend&quot;" style="text;html=1;strokeColor=none;fillColor=none;align=center;verticalAlign=middle;whiteSpace=wrap;rounded=0;" vertex="1" parent="1">
          <mxGeometry x="330" y="-490" width="60" height="30" as="geometry" />
        </mxCell>
      </root>
    </mxGraphModel>
  </diagram>
</mxfile>
